<mxfile host="app.diagrams.net" agent="Mozilla/5.0 (Windows NT 10.0; Win64; x64) AppleWebKit/537.36 (KHTML, like Gecko) Chrome/131.0.0.0 Safari/537.36" version="24.9.1">
  <diagram name="Stránka-1" id="aJjM-g6pXQFV8jIazuzV">
    <mxGraphModel dx="1434" dy="728" grid="1" gridSize="10" guides="1" tooltips="1" connect="1" arrows="1" fold="1" page="1" pageScale="1" pageWidth="827" pageHeight="1169" math="0" shadow="0">
      <root>
        <mxCell id="0" />
        <mxCell id="1" parent="0" />
        <mxCell id="ZBGhX0-Q-C0msfXEaytf-6" style="edgeStyle=orthogonalEdgeStyle;rounded=0;orthogonalLoop=1;jettySize=auto;html=1;exitX=0.5;exitY=1;exitDx=0;exitDy=0;entryX=0.5;entryY=0;entryDx=0;entryDy=0;" edge="1" parent="1" source="ZBGhX0-Q-C0msfXEaytf-1" target="ZBGhX0-Q-C0msfXEaytf-3">
          <mxGeometry relative="1" as="geometry" />
        </mxCell>
        <mxCell id="ZBGhX0-Q-C0msfXEaytf-7" style="edgeStyle=orthogonalEdgeStyle;rounded=0;orthogonalLoop=1;jettySize=auto;html=1;exitX=0;exitY=1;exitDx=0;exitDy=0;entryX=0.5;entryY=0;entryDx=0;entryDy=0;" edge="1" parent="1" source="ZBGhX0-Q-C0msfXEaytf-1" target="ZBGhX0-Q-C0msfXEaytf-2">
          <mxGeometry relative="1" as="geometry" />
        </mxCell>
        <mxCell id="ZBGhX0-Q-C0msfXEaytf-8" style="edgeStyle=orthogonalEdgeStyle;rounded=0;orthogonalLoop=1;jettySize=auto;html=1;exitX=1;exitY=1;exitDx=0;exitDy=0;entryX=0.5;entryY=0;entryDx=0;entryDy=0;" edge="1" parent="1" source="ZBGhX0-Q-C0msfXEaytf-1" target="ZBGhX0-Q-C0msfXEaytf-5">
          <mxGeometry relative="1" as="geometry" />
        </mxCell>
        <mxCell id="ZBGhX0-Q-C0msfXEaytf-1" value="Start" style="rounded=1;whiteSpace=wrap;html=1;" vertex="1" parent="1">
          <mxGeometry x="70" y="20" width="120" height="60" as="geometry" />
        </mxCell>
        <mxCell id="ZBGhX0-Q-C0msfXEaytf-11" style="edgeStyle=orthogonalEdgeStyle;rounded=0;orthogonalLoop=1;jettySize=auto;html=1;exitX=0.5;exitY=1;exitDx=0;exitDy=0;entryX=0.5;entryY=0;entryDx=0;entryDy=0;" edge="1" parent="1" source="ZBGhX0-Q-C0msfXEaytf-2" target="ZBGhX0-Q-C0msfXEaytf-9">
          <mxGeometry relative="1" as="geometry" />
        </mxCell>
        <mxCell id="ZBGhX0-Q-C0msfXEaytf-2" value="Přihlásit se" style="rounded=1;whiteSpace=wrap;html=1;" vertex="1" parent="1">
          <mxGeometry y="120" width="80" height="40" as="geometry" />
        </mxCell>
        <mxCell id="ZBGhX0-Q-C0msfXEaytf-19" style="edgeStyle=orthogonalEdgeStyle;rounded=0;orthogonalLoop=1;jettySize=auto;html=1;exitX=0.5;exitY=1;exitDx=0;exitDy=0;entryX=0.5;entryY=0;entryDx=0;entryDy=0;" edge="1" parent="1" source="ZBGhX0-Q-C0msfXEaytf-3" target="ZBGhX0-Q-C0msfXEaytf-10">
          <mxGeometry relative="1" as="geometry" />
        </mxCell>
        <mxCell id="ZBGhX0-Q-C0msfXEaytf-3" value="vytvořit si účet&lt;span style=&quot;color: rgba(0, 0, 0, 0); font-family: monospace; font-size: 0px; text-align: start; text-wrap-mode: nowrap;&quot;&gt;%3CmxGraphModel%3E%3Croot%3E%3CmxCell%20id%3D%220%22%2F%3E%3CmxCell%20id%3D%221%22%20parent%3D%220%22%2F%3E%3CmxCell%20id%3D%222%22%20value%3D%22P%C5%99ihl%C3%A1sit%20se%22%20style%3D%22rounded%3D1%3BwhiteSpace%3Dwrap%3Bhtml%3D1%3B%22%20vertex%3D%221%22%20parent%3D%221%22%3E%3CmxGeometry%20y%3D%22120%22%20width%3D%2280%22%20height%3D%2240%22%20as%3D%22geometry%22%2F%3E%3C%2FmxCell%3E%3C%2Froot%3E%3C%2FmxGraphModel%3E&lt;/span&gt;" style="rounded=1;whiteSpace=wrap;html=1;" vertex="1" parent="1">
          <mxGeometry x="90" y="120" width="80" height="40" as="geometry" />
        </mxCell>
        <mxCell id="ZBGhX0-Q-C0msfXEaytf-30" style="edgeStyle=orthogonalEdgeStyle;rounded=0;orthogonalLoop=1;jettySize=auto;html=1;exitX=0.5;exitY=1;exitDx=0;exitDy=0;entryX=1;entryY=0.5;entryDx=0;entryDy=0;" edge="1" parent="1" source="ZBGhX0-Q-C0msfXEaytf-5" target="ZBGhX0-Q-C0msfXEaytf-16">
          <mxGeometry relative="1" as="geometry" />
        </mxCell>
        <mxCell id="ZBGhX0-Q-C0msfXEaytf-5" value="Nepřihlašovat se" style="rounded=1;whiteSpace=wrap;html=1;" vertex="1" parent="1">
          <mxGeometry x="180" y="120" width="80" height="40" as="geometry" />
        </mxCell>
        <mxCell id="ZBGhX0-Q-C0msfXEaytf-12" style="edgeStyle=orthogonalEdgeStyle;rounded=0;orthogonalLoop=1;jettySize=auto;html=1;exitX=1;exitY=0;exitDx=0;exitDy=0;entryX=0.75;entryY=1;entryDx=0;entryDy=0;" edge="1" parent="1">
          <mxGeometry relative="1" as="geometry">
            <mxPoint x="60" y="220" as="sourcePoint" />
            <mxPoint x="60" y="160" as="targetPoint" />
          </mxGeometry>
        </mxCell>
        <mxCell id="ZBGhX0-Q-C0msfXEaytf-27" value="chyba" style="edgeLabel;html=1;align=center;verticalAlign=middle;resizable=0;points=[];" vertex="1" connectable="0" parent="ZBGhX0-Q-C0msfXEaytf-12">
          <mxGeometry x="-0.0667" y="1" relative="1" as="geometry">
            <mxPoint as="offset" />
          </mxGeometry>
        </mxCell>
        <mxCell id="ZBGhX0-Q-C0msfXEaytf-17" style="edgeStyle=orthogonalEdgeStyle;rounded=0;orthogonalLoop=1;jettySize=auto;html=1;exitX=0.5;exitY=1;exitDx=0;exitDy=0;entryX=0;entryY=0.5;entryDx=0;entryDy=0;" edge="1" parent="1" source="ZBGhX0-Q-C0msfXEaytf-9" target="ZBGhX0-Q-C0msfXEaytf-16">
          <mxGeometry relative="1" as="geometry" />
        </mxCell>
        <mxCell id="ZBGhX0-Q-C0msfXEaytf-26" value="Povedlo se" style="edgeLabel;html=1;align=center;verticalAlign=middle;resizable=0;points=[];" vertex="1" connectable="0" parent="ZBGhX0-Q-C0msfXEaytf-17">
          <mxGeometry x="-0.74" y="-2" relative="1" as="geometry">
            <mxPoint as="offset" />
          </mxGeometry>
        </mxCell>
        <mxCell id="ZBGhX0-Q-C0msfXEaytf-9" value="úspěšně přihlášeno&lt;span style=&quot;color: rgba(0, 0, 0, 0); font-family: monospace; font-size: 0px; text-align: start; text-wrap-mode: nowrap;&quot;&gt;%3CmxGraphModel%3E%3Croot%3E%3CmxCell%20id%3D%220%22%2F%3E%3CmxCell%20id%3D%221%22%20parent%3D%220%22%2F%3E%3CmxCell%20id%3D%222%22%20value%3D%22P%C5%99ihl%C3%A1sit%20se%22%20style%3D%22rounded%3D1%3BwhiteSpace%3Dwrap%3Bhtml%3D1%3B%22%20vertex%3D%221%22%20parent%3D%221%22%3E%3CmxGeometry%20y%3D%22120%22%20width%3D%2280%22%20height%3D%2240%22%20as%3D%22geometry%22%2F%3E%3C%2FmxCell%3E%3C%2Froot%3E%3C%2FmxGraphModel%3E&lt;/span&gt;" style="rhombus;whiteSpace=wrap;html=1;" vertex="1" parent="1">
          <mxGeometry y="200" width="80" height="80" as="geometry" />
        </mxCell>
        <mxCell id="ZBGhX0-Q-C0msfXEaytf-18" style="edgeStyle=orthogonalEdgeStyle;rounded=0;orthogonalLoop=1;jettySize=auto;html=1;exitX=0.5;exitY=1;exitDx=0;exitDy=0;entryX=0.5;entryY=0;entryDx=0;entryDy=0;" edge="1" parent="1" source="ZBGhX0-Q-C0msfXEaytf-10" target="ZBGhX0-Q-C0msfXEaytf-16">
          <mxGeometry relative="1" as="geometry" />
        </mxCell>
        <mxCell id="ZBGhX0-Q-C0msfXEaytf-29" value="ne" style="edgeLabel;html=1;align=center;verticalAlign=middle;resizable=0;points=[];" vertex="1" connectable="0" parent="ZBGhX0-Q-C0msfXEaytf-18">
          <mxGeometry x="-0.45" y="-1" relative="1" as="geometry">
            <mxPoint as="offset" />
          </mxGeometry>
        </mxCell>
        <mxCell id="ZBGhX0-Q-C0msfXEaytf-20" style="edgeStyle=orthogonalEdgeStyle;rounded=0;orthogonalLoop=1;jettySize=auto;html=1;exitX=1;exitY=0;exitDx=0;exitDy=0;entryX=0.75;entryY=1;entryDx=0;entryDy=0;" edge="1" parent="1" source="ZBGhX0-Q-C0msfXEaytf-10" target="ZBGhX0-Q-C0msfXEaytf-3">
          <mxGeometry relative="1" as="geometry" />
        </mxCell>
        <mxCell id="ZBGhX0-Q-C0msfXEaytf-28" value="ano" style="edgeLabel;html=1;align=center;verticalAlign=middle;resizable=0;points=[];" vertex="1" connectable="0" parent="ZBGhX0-Q-C0msfXEaytf-20">
          <mxGeometry x="0.1" y="-1" relative="1" as="geometry">
            <mxPoint as="offset" />
          </mxGeometry>
        </mxCell>
        <mxCell id="ZBGhX0-Q-C0msfXEaytf-10" value="chyba" style="rhombus;whiteSpace=wrap;html=1;" vertex="1" parent="1">
          <mxGeometry x="90" y="200" width="80" height="80" as="geometry" />
        </mxCell>
        <mxCell id="ZBGhX0-Q-C0msfXEaytf-36" style="edgeStyle=orthogonalEdgeStyle;rounded=0;orthogonalLoop=1;jettySize=auto;html=1;exitX=0.25;exitY=1;exitDx=0;exitDy=0;entryX=0.5;entryY=0;entryDx=0;entryDy=0;" edge="1" parent="1" source="ZBGhX0-Q-C0msfXEaytf-16" target="ZBGhX0-Q-C0msfXEaytf-31">
          <mxGeometry relative="1" as="geometry" />
        </mxCell>
        <mxCell id="ZBGhX0-Q-C0msfXEaytf-37" style="edgeStyle=orthogonalEdgeStyle;rounded=0;orthogonalLoop=1;jettySize=auto;html=1;exitX=0.5;exitY=1;exitDx=0;exitDy=0;entryX=0.5;entryY=0;entryDx=0;entryDy=0;" edge="1" parent="1" source="ZBGhX0-Q-C0msfXEaytf-16" target="ZBGhX0-Q-C0msfXEaytf-32">
          <mxGeometry relative="1" as="geometry" />
        </mxCell>
        <mxCell id="ZBGhX0-Q-C0msfXEaytf-40" style="edgeStyle=orthogonalEdgeStyle;rounded=0;orthogonalLoop=1;jettySize=auto;html=1;exitX=0.75;exitY=1;exitDx=0;exitDy=0;entryX=0.5;entryY=0;entryDx=0;entryDy=0;" edge="1" parent="1" source="ZBGhX0-Q-C0msfXEaytf-16" target="ZBGhX0-Q-C0msfXEaytf-33">
          <mxGeometry relative="1" as="geometry" />
        </mxCell>
        <mxCell id="ZBGhX0-Q-C0msfXEaytf-41" style="edgeStyle=orthogonalEdgeStyle;rounded=0;orthogonalLoop=1;jettySize=auto;html=1;exitX=1;exitY=0.75;exitDx=0;exitDy=0;entryX=0.5;entryY=0;entryDx=0;entryDy=0;" edge="1" parent="1" source="ZBGhX0-Q-C0msfXEaytf-16" target="ZBGhX0-Q-C0msfXEaytf-34">
          <mxGeometry relative="1" as="geometry" />
        </mxCell>
        <mxCell id="ZBGhX0-Q-C0msfXEaytf-16" value="Úvodní stránka" style="rounded=1;whiteSpace=wrap;html=1;" vertex="1" parent="1">
          <mxGeometry x="70" y="320" width="120" height="60" as="geometry" />
        </mxCell>
        <mxCell id="ZBGhX0-Q-C0msfXEaytf-31" value="Novinky" style="rounded=1;whiteSpace=wrap;html=1;" vertex="1" parent="1">
          <mxGeometry y="440" width="80" height="40" as="geometry" />
        </mxCell>
        <mxCell id="ZBGhX0-Q-C0msfXEaytf-32" value="Obchod" style="rounded=1;whiteSpace=wrap;html=1;" vertex="1" parent="1">
          <mxGeometry x="90" y="440" width="80" height="40" as="geometry" />
        </mxCell>
        <mxCell id="ZBGhX0-Q-C0msfXEaytf-33" value="žebříčky" style="rounded=1;whiteSpace=wrap;html=1;" vertex="1" parent="1">
          <mxGeometry x="180" y="440" width="80" height="40" as="geometry" />
        </mxCell>
        <mxCell id="ZBGhX0-Q-C0msfXEaytf-34" value="podpora" style="rounded=1;whiteSpace=wrap;html=1;" vertex="1" parent="1">
          <mxGeometry x="270" y="440" width="80" height="40" as="geometry" />
        </mxCell>
        <mxCell id="ZBGhX0-Q-C0msfXEaytf-42" value="Obchod" style="rounded=1;whiteSpace=wrap;html=1;" vertex="1" parent="1">
          <mxGeometry x="90" y="565" width="80" height="40" as="geometry" />
        </mxCell>
        <mxCell id="ZBGhX0-Q-C0msfXEaytf-43" value="" style="rhombus;whiteSpace=wrap;html=1;" vertex="1" parent="1">
          <mxGeometry x="95" y="490" width="70" height="70" as="geometry" />
        </mxCell>
      </root>
    </mxGraphModel>
  </diagram>
</mxfile>
